<?xml version="1.0" encoding="UTF-8" standalone="no"?>
<!-- Created with Inkscape (http://www.inkscape.org/) -->

<svg
   width="512"
   height="512"
   viewBox="0 0 135.46666 135.46667"
   version="1.1"
   id="svg1"
   xml:space="preserve"
   xmlns="http://www.w3.org/2000/svg"
   xmlns:svg="http://www.w3.org/2000/svg"><defs
     id="defs1" /><g
     id="layer1"><rect
       style="display:none;fill:#ffffff;stroke:none;stroke-width:1.07611;stroke-linecap:square"
       id="rect3"
       width="134.39055"
       height="134.39056"
       x="0.538059"
       y="0.53805137" /><path
       style="fill:#ffffff;stroke-width:0.640914"
       d="m 27.930794,113.51249 c -0.372568,-0.16188 -0.644995,-0.4517 -0.821361,-0.87381 -0.239151,-0.57235 -0.238907,-0.68398 0.0025,-1.19039 0.210598,-0.44161 5.576068,-8.57118 8.575659,-12.993497 0.491343,-0.72439 0.525318,-0.84635 0.307054,-1.10223 -0.134982,-0.15826 -0.852593,-0.98317 -1.594694,-1.83317 -0.742101,-0.849977 -1.835238,-2.261686 -2.429197,-3.13712 -0.59396,-0.875435 -1.101423,-1.619496 -1.1277,-1.653446 -0.0541,-0.0699 -0.156069,-0.01021 -3.881052,2.275482 -8.662181,5.315004 -10.54155,6.435054 -11.067433,6.595944 -0.59876,0.18317 -1.537737,-0.20854 -1.823213,-0.76058 -0.356622,-0.68963 -0.312137,-1.26139 0.138931,-1.78578 0.369379,-0.42943 4.395295,-2.947823 11.529533,-7.212249 1.752718,-1.047673 3.220634,-1.959661 3.26203,-2.02665 0.0414,-0.06695 -0.277598,-0.874756 -0.708895,-1.795043 -0.431289,-0.920274 -1.069575,-2.471383 -1.418411,-3.446885 -0.348836,-0.975502 -0.718606,-1.801762 -0.821723,-1.836123 -0.10311,-0.03437 -1.352435,0.279242 -2.776281,0.696927 -1.423847,0.417683 -3.657135,1.065577 -4.962862,1.439769 -1.305726,0.374178 -3.729168,1.076183 -5.385416,1.559996 -1.656255,0.483801 -3.2943021,0.879655 -3.6401061,0.879655 -0.83736,0 -1.572918,-0.778293 -1.572918,-1.664309 0,-0.94413 0.668902,-1.447862 2.6609771,-2.003884 2.744244,-0.76598 14.888054,-4.21148 14.915677,-4.231963 0.01409,-0.01021 -0.08039,-0.591319 -0.209996,-1.29081 -0.397212,-2.143865 -0.741511,-4.786805 -0.744999,-5.718738 l -0.0032,-0.885849 -8.831903,-0.04682 -8.8319011,-0.04681 -0.4947223,-0.553791 c -0.6484108,-0.725836 -0.6484108,-1.388504 0,-2.114339 l 0.4947223,-0.553804 8.8071821,-0.04681 8.807174,-0.04681 0.114303,-1.564191 c 0.06288,-0.860301 0.299589,-2.629474 0.526056,-3.931494 0.226473,-1.30202 0.396008,-2.376703 0.376755,-2.38817 C 25.12276,58.118241 10.31293,53.92903 9.2266849,53.677672 8.1261339,53.42299 7.6063799,52.536243 7.9109989,51.432996 c 0.194716,-0.705186 0.717439,-1.086163 1.490278,-1.086163 0.544405,0 8.0416371,2.019391 11.0321961,2.97155 1.936513,0.616547 5.430708,1.606978 5.669405,1.606978 0.116624,0 0.307471,-0.324312 0.424117,-0.720692 0.322309,-1.095282 0.984559,-2.744303 1.847055,-4.599241 l 0.778396,-1.674057 -0.354515,-0.276049 c -0.402589,-0.313487 -1.581973,-1.052956 -4.633804,-2.905394 -1.165827,-0.707649 -3.073551,-1.883669 -4.23938,-2.613377 -6.281169,-3.931481 -6.104699,-3.792347 -6.104699,-4.812982 0,-0.40791 0.146205,-0.715037 0.516825,-1.08565 0.457427,-0.45743 0.602101,-0.507207 1.258875,-0.433177 0.408128,0.04604 1.087734,0.303522 1.510236,0.57226 0.422498,0.268737 2.302829,1.442474 4.178514,2.60831 1.875677,1.165824 4.607244,2.874907 6.070141,3.797965 1.462903,0.923057 2.84231,1.776163 3.065341,1.895789 0.39088,0.209662 0.445256,0.16131 1.505993,-1.339126 1.204852,-1.704299 2.929442,-3.817433 3.752824,-4.59833 0.288833,-0.273932 0.525151,-0.549417 0.525151,-0.612199 0,-0.118125 -4.856534,-7.002724 -7.759417,-10.999757 -0.908598,-1.251077 -1.782334,-2.510168 -1.941641,-2.797991 -0.794662,-1.435742 0.13697,-2.827389 1.678976,-2.508014 0.585576,0.121332 0.81103,0.357736 2.426107,2.544502 2.29647,3.10935 6.507803,8.991103 8.157962,11.393778 0.709594,1.033205 1.468872,2.068757 1.687282,2.301249 l 0.39711,0.422699 -1.291787,1.309562 c -3.179417,3.223152 -5.026658,5.686276 -6.959332,9.279579 -3.098593,5.761063 -4.482112,11.008518 -4.659012,17.670885 -0.142052,5.350113 0.338249,8.769884 1.910186,13.600682 1.838031,5.648542 4.637681,10.270817 8.853192,14.616759 1.050131,1.082649 1.909327,2.050579 1.909327,2.150999 0,0.10042 -1.051144,1.73282 -2.335874,3.627557 -1.28473,1.89476 -3.690584,5.49104 -5.346339,7.99176 -2.52666,3.81605 -3.104213,4.58592 -3.593806,4.79049 -0.701429,0.29308 -0.704538,0.29305 -1.406063,-0.0115 z m 78.053246,-0.0564 c -0.28212,-0.17229 -1.08014,-1.17288 -1.7915,-2.24622 -0.70552,-1.06455 -3.09017,-4.65442 -5.299217,-7.97749 -2.209045,-3.323057 -4.016452,-6.110537 -4.016452,-6.194387 0,-0.0838 0.502315,-0.64625 1.116256,-1.2498 6.592283,-6.480544 10.554063,-14.914521 11.428353,-24.329104 0.69511,-7.485088 -0.80627,-15.134566 -4.2919,-21.867012 -2.02797,-3.916962 -3.743327,-6.329399 -6.69112,-9.41021 l -1.694705,-1.771173 1.176081,-1.620331 c 2.059747,-2.837776 3.420087,-4.734822 4.553014,-6.349302 2.99839,-4.272838 5.84165,-8.109268 6.24653,-8.428462 0.61162,-0.48216 1.65369,-0.354273 2.18955,0.268712 0.62451,0.726028 0.51819,1.558946 -0.34949,2.737966 -2.09199,2.842612 -9.273617,12.981813 -9.273617,13.092717 0,0.0708 0.27396,0.391622 0.6088,0.713036 0.899907,0.863815 2.958247,3.460159 3.861687,4.871031 0.73964,1.155088 0.81473,1.221449 1.16989,1.034 0.34146,-0.180227 1.86491,-1.129757 6.22988,-3.882934 5.11878,-3.228655 8.38029,-5.083582 8.93845,-5.083582 0.84507,0 1.57519,0.766263 1.57519,1.653152 0,0.753744 -0.23448,1.01739 -1.69575,1.906728 -0.83108,0.505798 -4.00562,2.481798 -5.59597,3.483221 -0.32643,0.205559 -2.28512,1.423428 -4.35264,2.706377 l -3.75913,2.332647 0.59365,1.293055 c 0.74365,1.619817 1.91277,4.506703 2.12033,5.23568 0.0989,0.347233 0.26375,0.549866 0.44568,0.547724 0.15885,-0.0013 1.58605,-0.382387 3.17157,-0.845589 12.90829,-3.771172 13.74092,-3.97505 14.34377,-3.512181 0.61739,0.474001 0.86492,1.633271 0.49598,2.322643 -0.24567,0.459033 -0.0812,0.405935 -10.60037,3.422093 -1.30573,0.374397 -3.24344,0.94118 -4.30601,1.259528 -1.06258,0.318361 -2.03551,0.578826 -2.16208,0.578826 -0.28523,0 -0.2938,-0.172454 0.10811,2.177174 0.18603,1.087573 0.4087,2.804185 0.4948,3.814688 0.0861,1.010504 0.19099,1.871716 0.23308,1.913796 0.042,0.04207 3.94512,0.07247 8.67344,0.06746 7.81275,-0.0077 8.64168,0.01732 9.08727,0.280601 0.98554,0.582175 1.09958,2.101745 0.20337,2.70975 -0.43183,0.292954 -1.03025,0.316463 -9.23725,0.362803 -5.71,0.03219 -8.7755,0.108894 -8.7755,0.219295 0,0.632874 -0.57159,5.205015 -0.77196,6.175001 -0.13488,0.65287 -0.24528,1.279472 -0.24536,1.392454 -8e-5,0.112996 0.32417,0.290504 0.72056,0.394457 0.39636,0.10389 1.33116,0.370972 2.07728,0.593358 1.78891,0.533205 10.76413,3.090816 11.95504,3.406754 1.97853,0.524893 2.7132,1.121176 2.7132,2.202131 0,0.615983 -0.27497,1.041221 -0.8734,1.350681 -0.43511,0.225003 -0.65768,0.238816 -1.3092,0.08131 -1.00717,-0.243536 -7.36331,-2.085879 -12.38201,-3.588969 -0.59588,-0.178458 -1.5879,-0.440283 -2.20448,-0.581841 -0.61659,-0.141557 -1.25061,-0.297249 -1.40896,-0.346013 -0.22293,-0.06861 -0.332,0.07592 -0.48325,0.640686 -0.24461,0.913283 -1.30434,3.593059 -2.00491,5.069895 -0.29186,0.615252 -0.53066,1.161282 -0.53066,1.213381 0,0.09132 3.92737,2.552186 7.97003,4.993967 5.60499,3.385435 6.55285,3.984105 6.82539,4.310835 0.18145,0.21754 0.29676,0.63906 0.29676,1.08498 0,0.60613 -0.0881,0.80335 -0.52173,1.16824 -0.28697,0.24146 -0.72574,0.43883 -0.97507,0.43863 -0.49578,-4.2e-4 -1.94578,-0.79018 -5.9645,-3.24864 -1.44564,-0.88436 -4.04012,-2.469358 -5.76556,-3.522232 -1.72542,-1.052881 -3.23436,-1.993124 -3.3532,-2.089432 -0.11884,-0.09633 -0.2383,-0.145162 -0.26548,-0.10851 -0.0272,0.03656 -0.37915,0.562576 -0.78215,1.168799 -0.92668,1.39402 -2.29681,3.106567 -3.5998,4.499465 -0.656177,0.70147 -0.969027,1.16134 -0.885967,1.3024 0.11976,0.20337 5.376987,8.181867 7.816667,11.862757 1.5062,2.27249 1.58035,3.12258 0.33842,3.87984 -0.67021,0.40866 -0.91449,0.41159 -1.55775,0.0188 z M 47.772737,88.557002 c -0.728841,-0.292978 -3.81985,-4.446409 -5.417224,-7.279183 -1.601996,-2.840957 -2.863832,-6.857999 -3.280753,-10.444236 -0.289623,-2.491212 -0.11987,-7.221339 0.336589,-9.379492 1.080502,-5.108629 3.015562,-9.194236 6.324219,-13.352708 0.648733,-0.815359 1.374285,-1.635681 1.612353,-1.822938 0.796649,-0.626641 1.969058,-0.35453 2.600678,0.603618 0.578937,0.878245 0.446211,1.269072 -1.036978,3.053469 -2.669149,3.211185 -4.12472,5.818624 -5.294157,9.483662 -0.864335,2.708827 -1.202282,4.955771 -1.198707,7.970018 0.0076,6.448806 2.162993,12.209881 6.403592,17.116273 1.108901,1.283 1.456301,1.802635 1.456301,2.178302 0,1.258566 -1.41104,2.313357 -2.505913,1.873215 z m 38.488,-0.229632 c -0.533343,-0.325159 -1.049636,-1.199722 -1.049636,-1.77801 0,-0.146881 0.33503,-0.626256 0.74451,-1.065282 3.540718,-3.79613 5.93723,-8.772115 6.795534,-14.10985 0.332749,-2.069348 0.336818,-6.225241 0.0081,-8.224392 -0.837057,-5.090096 -2.977145,-9.69734 -6.29332,-13.548442 -0.908996,-1.055624 -1.153042,-1.454748 -1.153042,-1.88572 0,-0.714947 0.45303,-1.385131 1.166207,-1.725232 0.781675,-0.372755 1.371842,-0.111584 2.475047,1.095564 2.374423,2.597999 5.050585,7.244016 6.147459,10.672484 1.143112,3.572974 1.38724,5.263538 1.37846,9.545931 -0.0066,3.475833 -0.04829,4.005639 -0.462212,5.952346 -0.249912,1.175301 -0.690295,2.815934 -0.978619,3.645864 -1.852453,5.332258 -6.173926,11.771035 -7.897989,11.76761 C 86.965709,88.669895 86.569502,88.5156 86.260774,88.32737 Z M 65.62519,76.175602 c -1.368889,-0.310627 -2.277959,-0.789771 -3.815444,-2.011028 -1.928168,-1.531575 -3.125785,-3.777007 -3.329275,-6.242067 -0.131342,-1.591049 0.138406,-2.968766 0.874847,-4.468226 2.780808,-5.662009 10.055517,-6.970647 14.673535,-2.639618 1.845004,1.730348 2.720094,3.788588 2.743276,6.452255 0.02038,2.342588 -0.598446,3.990159 -2.219124,5.908188 -1.105646,1.308496 -2.893327,2.440344 -4.512101,2.856784 -0.940413,0.241932 -3.601235,0.328519 -4.415714,0.143712 z"
       id="path3" /></g></svg>
