<?xml version="1.0" encoding="UTF-8" standalone="no"?>
<!-- Created with Inkscape (http://www.inkscape.org/) -->

<svg
   width="512"
   height="512"
   viewBox="0 0 135.46666 135.46667"
   version="1.1"
   id="svg1"
   xml:space="preserve"
   xmlns="http://www.w3.org/2000/svg"
   xmlns:svg="http://www.w3.org/2000/svg"><defs
     id="defs1" /><g
     id="layer1"><rect
       style="display:none;fill:#ffffff;stroke:none;stroke-width:1.07611;stroke-linecap:square"
       id="rect3"
       width="134.39055"
       height="134.39056"
       x="0.538059"
       y="0.53805137" /><path
       style="fill:#000000;stroke-width:0.499708"
       d="m 62.743605,127.44906 c -3.135717,-0.30451 -6.820837,-0.91732 -8.858361,-1.47308 -5.927256,-1.61674 -8.100295,-2.43701 -13.125418,-4.95452 -2.76173,-1.38359 -6.866451,-3.99382 -9.025619,-5.73947 -4.650971,-3.76024 -6.840206,-5.96201 -10.516952,-10.57715 -2.773319,-3.48114 -6.14132,-9.399751 -7.843475,-13.783411 -3.086221,-7.94809 -4.4666987,-15.59955 -4.2626177,-23.62599 0.228901,-9.00262 2.1929277,-16.83669 6.2665317,-24.99579 2.805465,-5.61913 6.249906,-10.34909 11.073067,-15.20572 8.062247,-8.11819 18.482031,-13.694931 29.880448,-15.992201 4.348573,-0.87642 6.85993,-1.1217897 11.650306,-1.1382397 6.781451,-0.0233 11.824453,0.7472797 18.3213,2.7995197 8.240283,2.60297 16.105195,7.292721 22.732495,13.555121 6.88001,6.50119 11.90054,14.40765 15.18543,23.91438 0.81,2.34421 1.78472,6.28778 2.23851,9.05669 0.97852,5.97076 0.95849,13.35064 -0.0521,19.21399 -1.61503,9.36982 -5.16862,17.79834 -10.62889,25.210041 -3.12769,4.24548 -7.72111,8.87912 -11.98204,12.08696 -5.343262,4.02267 -12.100372,7.42304 -18.535271,9.32749 -3.680058,1.08914 -6.549971,1.69604 -10.089142,2.13354 -2.802761,0.34647 -9.718349,0.45099 -12.428152,0.18784 z m 9.717757,-0.3394 c 5.1136,-0.43512 9.591558,-1.34922 14.477477,-2.95534 5.49834,-1.80745 11.378843,-4.86325 16.199861,-8.41826 4.08349,-3.01115 8.56514,-7.38175 11.5149,-11.22955 6.74822,-8.802671 10.92652,-19.499341 11.87839,-30.409301 0.23102,-2.64794 0.26697,-8.06036 0.0685,-10.31272 -0.60602,-6.87701 -2.57742,-13.99151 -5.63053,-20.31981 -2.86608,-5.94064 -6.35167,-10.86876 -11.11401,-15.71362 -6.86254,-6.98143 -16.072852,-12.479711 -25.230844,-15.062041 -6.417698,-1.80963 -10.99904,-2.40139 -17.650617,-2.27989 -5.492346,0.10033 -8.610009,0.52369 -13.816405,1.87619 -8.286286,2.1526 -15.912798,6.052401 -22.424182,11.466591 -3.27586,2.72386 -7.029046,6.67007 -9.718419,10.21823 -3.405009,4.49233 -7.005799,11.43657 -8.672445,16.72512 -1.128925,3.58226 -2.143497,8.12389 -2.4662427,11.03991 -0.697987,6.30622 -0.432697,12.62467 0.7756257,18.47319 2.889386,13.98525 9.933668,25.571361 20.864723,34.317331 10.102025,8.08267 23.095574,12.64474 36.184525,12.70449 1.745225,0.008 3.887098,-0.0463 4.759713,-0.12052 z M 37.254335,106.29054 c -0.290485,-0.12622 -0.502891,-0.35218 -0.6404,-0.68129 -0.186461,-0.44626 -0.186271,-0.53329 0.002,-0.92813 0.164199,-0.34432 4.347553,-6.682781 6.686276,-10.130781 0.383091,-0.5648 0.409581,-0.65988 0.239405,-0.85939 -0.105243,-0.12339 -0.664751,-0.76656 -1.243353,-1.42928 -0.578602,-0.66272 -1.430899,-1.7634 -1.893998,-2.44596 -0.463099,-0.68256 -0.858758,-1.26269 -0.879246,-1.28916 -0.04218,-0.0545 -0.121684,-0.008 -3.025981,1.77415 -6.753737,4.14401 -8.219045,5.01729 -8.629066,5.14273 -0.466842,0.14282 -1.198944,-0.16259 -1.421524,-0.59301 -0.278052,-0.53769 -0.243368,-0.98348 0.108322,-1.39234 0.287997,-0.33482 3.426927,-2.29836 8.989355,-5.62325 1.366561,-0.81685 2.511067,-1.52791 2.543343,-1.58014 0.03228,-0.0522 -0.216438,-0.68203 -0.552712,-1.39956 -0.336268,-0.71752 -0.833927,-1.92689 -1.105908,-2.68747 -0.271981,-0.76058 -0.560283,-1.4048 -0.640681,-1.43159 -0.08039,-0.0268 -1.054468,0.21772 -2.164614,0.54338 -1.110146,0.32566 -2.851398,0.83081 -3.869448,1.12256 -1.01805,0.29174 -2.907561,0.83908 -4.198906,1.2163 -1.29135,0.37721 -2.568503,0.68585 -2.838121,0.68585 -0.652873,0 -1.226373,-0.60682 -1.226373,-1.29763 0,-0.73612 0.52153,-1.12887 2.074712,-1.56239 2.139635,-0.59722 11.60793,-3.28361 11.629467,-3.29958 0.01099,-0.008 -0.06268,-0.46104 -0.163729,-1.00642 -0.309699,-1.67153 -0.578142,-3.73218 -0.580861,-4.45879 l -0.0025,-0.69068 -6.886065,-0.0365 -6.886064,-0.0365 -0.385725,-0.43178 c -0.505554,-0.56592 -0.505554,-1.08259 0,-1.64851 l 0.385725,-0.43179 6.866791,-0.0365 6.866785,-0.0365 0.08912,-1.21957 c 0.04902,-0.67076 0.233584,-2.05015 0.410156,-3.06531 0.176576,-1.01516 0.308759,-1.85307 0.293748,-1.86201 -0.139254,-0.083 -11.686194,-3.34925 -12.533119,-3.54523 -0.858078,-0.19857 -1.263321,-0.88995 -1.025815,-1.75013 0.151816,-0.54982 0.559373,-0.84686 1.161941,-0.84686 0.424462,0 6.26991,1.57448 8.601592,2.31686 1.509862,0.48071 4.234219,1.25293 4.420326,1.25293 0.09093,0 0.239729,-0.25286 0.330676,-0.56191 0.251298,-0.85397 0.767642,-2.13968 1.440113,-3.58594 l 0.606901,-1.30523 -0.276409,-0.21523 c -0.313891,-0.24442 -1.233434,-0.82097 -3.612888,-2.26528 -0.908973,-0.55174 -2.396389,-1.46866 -3.305363,-2.0376 -4.897307,-3.0653 -4.759717,-2.95682 -4.759717,-3.75259 0,-0.31804 0.113993,-0.5575 0.402959,-0.84646 0.356647,-0.35665 0.469446,-0.39546 0.981521,-0.33774 0.318209,0.0359 0.848085,0.23665 1.177502,0.44618 0.329413,0.20953 1.795471,1.12467 3.257906,2.03365 1.46243,0.90897 3.59218,2.24151 4.732773,2.9612 1.140598,0.71969 2.216095,1.38484 2.389988,1.47811 0.304762,0.16347 0.347157,0.12577 1.174194,-1.04409 0.9394,-1.32881 2.284029,-2.97638 2.926004,-3.58523 0.225198,-0.21358 0.409451,-0.42837 0.409451,-0.47732 0,-0.0921 -3.786547,-5.45989 -6.049869,-8.5763 -0.708416,-0.97544 -1.389652,-1.95713 -1.51386,-2.18154 -0.619583,-1.11942 0.106793,-2.20446 1.309065,-1.95545 0.456563,0.0946 0.632345,0.27892 1.891589,1.9839 1.790514,2.4243 5.074009,7.01019 6.360607,8.88351 0.553257,0.80557 1.145251,1.61297 1.315541,1.79424 l 0.309619,0.32957 -1.007181,1.02104 c -2.478931,2.51303 -3.919189,4.43348 -5.426058,7.23511 -2.415913,4.49179 -3.494617,8.58313 -3.632542,13.77765 -0.110755,4.17138 0.263726,6.83771 1.489335,10.60419 1.433077,4.40406 3.615911,8.00796 6.902664,11.39641 0.818767,0.84411 1.488665,1.59879 1.488665,1.67708 0,0.0783 -0.819556,1.35105 -1.821235,2.82835 -1.00168,1.4773 -2.877478,4.281251 -4.168438,6.231011 -1.969989,2.97531 -2.420296,3.57556 -2.802022,3.73506 -0.546891,0.22851 -0.549314,0.22849 -1.09628,-0.009 z m 60.856618,-0.044 c -0.219962,-0.13433 -0.842163,-0.91447 -1.396794,-1.75134 -0.550083,-0.83001 -2.409346,-3.62896 -4.131699,-6.219891 -1.722354,-2.59093 -3.13155,-4.76427 -3.13155,-4.82965 0,-0.0654 0.391646,-0.50387 0.870321,-0.97444 5.139881,-5.05276 8.2288,-11.62857 8.910472,-18.96894 0.541968,-5.83598 -0.628633,-11.80013 -3.346319,-17.04929 -1.581166,-3.05398 -2.918594,-4.93491 -5.216936,-7.33696 l -1.321327,-1.38095 0.916964,-1.26334 c 1.605941,-2.21256 2.666576,-3.69165 3.5499,-4.95043 2.337783,-3.33145 4.554627,-6.32264 4.870303,-6.57151 0.476866,-0.37593 1.289351,-0.27622 1.707152,0.20951 0.48692,0.56607 0.40402,1.21548 -0.2725,2.13474 -1.631083,2.21633 -7.230459,10.12167 -7.230459,10.20814 0,0.0552 0.213605,0.30534 0.474672,0.55594 0.70164,0.6735 2.306492,2.69782 3.010885,3.79785 0.576688,0.9006 0.635234,0.95234 0.912147,0.80619 0.266224,-0.14052 1.454025,-0.88085 4.857305,-3.02745 3.99102,-2.51732 6.53396,-3.96357 6.96915,-3.96357 0.65888,0 1.22814,0.59744 1.22814,1.28893 0,0.58768 -0.18282,0.79324 -1.32214,1.48664 -0.64798,0.39436 -3.12311,1.93501 -4.36308,2.7158 -0.25451,0.16027 -1.78166,1.10982 -3.39367,2.11011 l -2.930916,1.81872 0.462855,1.00817 c 0.579816,1.26294 1.491351,3.51379 1.653181,4.08216 0.0771,0.27073 0.20564,0.42872 0.34749,0.42705 0.12385,-10e-4 1.23661,-0.29814 2.47281,-0.65929 10.06435,-2.94031 10.71353,-3.09927 11.18357,-2.73838 0.48136,0.36957 0.67436,1.27343 0.3867,1.81092 -0.19154,0.3579 -0.0633,0.3165 -8.26491,2.66814 -1.01805,0.29191 -2.52884,0.73382 -3.35731,0.98203 -0.82847,0.24822 -1.58705,0.4513 -1.68573,0.4513 -0.22239,0 -0.22907,-0.13446 0.0843,1.6975 0.14505,0.84796 0.31866,2.18637 0.38579,2.97424 0.0671,0.78787 0.14891,1.45934 0.18172,1.49215 0.0328,0.0328 3.07594,0.0565 6.76252,0.0526 6.09145,-0.006 6.73775,0.0135 7.08517,0.21878 0.7684,0.45391 0.85732,1.63869 0.15856,2.11274 -0.33669,0.22841 -0.80326,0.24674 -7.20211,0.28287 -4.45197,0.0251 -6.84209,0.0849 -6.84209,0.17098 0,0.49344 -0.44565,4.05825 -0.60188,4.81453 -0.10516,0.50903 -0.19124,0.99758 -0.1913,1.08567 -6e-5,0.0881 0.25275,0.2265 0.56181,0.30755 0.30904,0.081 1.03788,0.28924 1.61962,0.46263 1.39477,0.41573 8.39258,2.40985 9.32111,2.65618 1.54262,0.40925 2.11543,0.87416 2.11543,1.71696 0,0.48027 -0.21439,0.81182 -0.68098,1.0531 -0.33924,0.17543 -0.51278,0.1862 -1.02075,0.0634 -0.78527,-0.18988 -5.74103,-1.62632 -9.65402,-2.79825 -0.46459,-0.13914 -1.23805,-0.34328 -1.71879,-0.45365 -0.48074,-0.11037 -0.97508,-0.23176 -1.09854,-0.26978 -0.17381,-0.0535 -0.25885,0.0592 -0.37678,0.49953 -0.19072,0.71207 -1.016968,2.80144 -1.563188,3.9529 -0.227562,0.4797 -0.413748,0.90543 -0.413748,0.94605 0,0.0712 3.062096,1.98989 6.214076,3.8937 4.37011,2.63956 5.10914,3.10633 5.32163,3.36107 0.14148,0.16962 0.23138,0.49827 0.23138,0.84595 0,0.47258 -0.0687,0.62635 -0.40679,0.91085 -0.22374,0.18826 -0.56584,0.34215 -0.76023,0.34199 -0.38656,-3.3e-4 -1.51709,-0.61609 -4.65042,-2.5329 -1.12713,-0.68952 -3.15,-1.92532 -4.495287,-2.74622 -1.345278,-0.82091 -2.521776,-1.554 -2.614426,-1.62909 -0.09266,-0.0751 -0.185802,-0.11318 -0.206994,-0.0846 -0.02119,0.0285 -0.295613,0.43863 -0.609824,0.91129 -0.722522,1.08689 -1.790783,2.42213 -2.806699,3.50815 -0.511611,0.54692 -0.755529,0.90548 -0.690766,1.01546 0.09337,0.15856 4.192329,6.379241 6.094507,9.249171 1.174349,1.77181 1.232159,2.43461 0.263856,3.02503 -0.522555,0.31862 -0.713018,0.32091 -1.214545,0.0146 z M 52.724717,86.833219 c -0.568263,-0.22843 -2.978264,-3.46678 -4.223706,-5.67544 -1.249045,-2.21504 -2.232875,-5.34705 -2.55794,-8.14317 -0.225813,-1.94235 -0.09346,-5.63034 0.262432,-7.31301 0.842447,-3.9831 2.351176,-7.16857 4.930873,-10.41085 0.505804,-0.63572 1.071503,-1.27531 1.25712,-1.42131 0.621132,-0.48858 1.535237,-0.27642 2.027699,0.47063 0.451386,0.68475 0.347902,0.98947 -0.808512,2.38073 -2.081084,2.5037 -3.215965,4.53667 -4.127752,7.39423 -0.673906,2.11202 -0.937397,3.86392 -0.934609,6.21407 0.0059,5.02801 1.686444,9.51981 4.992757,13.34523 0.864589,1.00033 1.135451,1.40548 1.135451,1.69838 0,0.98128 -1.100162,1.80368 -1.953813,1.46051 z m 30.008355,-0.17904 c -0.415837,-0.25352 -0.818381,-0.9354 -0.818381,-1.38628 0,-0.11452 0.261217,-0.48828 0.58048,-0.83058 2.760631,-2.95977 4.629144,-6.83945 5.298348,-11.00118 0.259438,-1.61343 0.262611,-4.8537 0.0063,-6.4124 -0.652638,-3.96865 -2.321223,-7.56083 -4.906781,-10.56346 -0.708726,-0.82305 -0.899005,-1.13424 -0.899005,-1.47026 0,-0.55743 0.353219,-1.07996 0.909269,-1.34513 0.609458,-0.29063 1.069599,-0.087 1.929747,0.85419 1.851292,2.02561 3.937838,5.64802 4.793053,8.32113 0.891264,2.78578 1.081602,4.10388 1.074761,7.44278 -0.0055,2.71004 -0.03763,3.12312 -0.360379,4.64093 -0.194856,0.91636 -0.53821,2.19553 -0.763009,2.84261 -1.444321,4.15746 -4.813691,9.17765 -6.15791,9.17498 -0.136855,-2.7e-4 -0.44577,-0.12057 -0.686479,-0.26733 z m -16.08914,-9.4745 c -1.067296,-0.24219 -1.776081,-0.61577 -2.974828,-1.56796 -1.503356,-1.19414 -2.437115,-2.94486 -2.595772,-4.86682 -0.102405,-1.24051 0.107912,-2.31469 0.682101,-3.48379 2.168143,-4.41456 7.840094,-5.43488 11.440674,-2.05806 1.438514,1.34912 2.120805,2.95389 2.13888,5.0307 0.01589,1.82647 -0.466597,3.11105 -1.730209,4.6065 -0.862051,1.02021 -2.255871,1.90269 -3.517998,2.22738 -0.733222,0.18863 -2.807814,0.25614 -3.442848,0.11205 z"
       id="path3" /></g></svg>
